<svg xmlns="http://www.w3.org/2000/svg" viewBox="0 0 1024 1024">
  <defs>
    <style>
      .cls-1 {
        fill: #1e1e1e;
      }

      .cls-2 {
        fill: #19ff06;
        stroke: #19ff06;
        stroke-miterlimit: 10;
        stroke-width: 20px;
      }
    </style>
  </defs>
  <title>binary_1</title>
  <g id="Capa_1" data-name="Capa 1">
    <rect class="cls-1" x="62" y="62" width="900" height="900" rx="120"/>
  </g>
  <g id="Capa_2" data-name="Capa 2">
    <g>
      <path class="cls-2" d="M316.62,323c0,58.06-38.71,105.31-86.53,105.31S143.85,381.08,143.85,323c0-58.35,38.43-105.6,86.24-105.6S316.62,264.67,316.62,323Zm-41.27.28c0-34.72-20.21-62.9-45.26-62.9-24.76,0-45,28.18-45,62.9s20.2,63.19,45,63.19C255.14,386.49,275.35,358,275.35,323.3Z"/>
      <path class="cls-2" d="M557.11,221.69V422.63H509.3V292.85H463.76V260.68s43-5.12,45.54-39Z"/>
      <path class="cls-2" d="M875.6,323c0,58.06-38.71,105.31-86.53,105.31S702.83,381.08,702.83,323c0-58.35,38.43-105.6,86.24-105.6S875.6,264.67,875.6,323Zm-41.27.28c0-34.72-20.21-62.9-45.26-62.9-24.76,0-45,28.18-45,62.9s20.21,63.19,45,63.19C814.12,386.49,834.33,358,834.33,323.3Z"/>
      <path class="cls-2" d="M316.62,664.56c0,58.06-38.71,105.31-86.53,105.31s-86.24-47.25-86.24-105.31c0-58.35,38.43-105.6,86.24-105.6S316.62,606.21,316.62,664.56Zm-41.27.28c0-34.72-20.21-62.9-45.26-62.9-24.76,0-45,28.18-45,62.9s20.2,63.19,45,63.19C255.14,728,275.35,699.57,275.35,664.84Z"/>
      <path class="cls-2" d="M557.11,563.23V764.18H509.3V634.39H463.76V602.23s43-5.13,45.54-39Z"/>
      <path class="cls-2" d="M803.59,563.23V764.18H755.77V634.39H710.23V602.23s43-5.13,45.54-39Z"/>
    </g>
  </g>
</svg>
