<svg xmlns="http://www.w3.org/2000/svg" viewBox="0 0 1024 1024">
  <defs>
    <style>
      .cls-1 {
        fill: #3194ff;
        stroke: #3194ff;
        stroke-miterlimit: 10;
        stroke-width: 60px;
      }
    </style>
  </defs>
  <title>c</title>
  <g id="Capa_2" data-name="Capa 2">
    <path class="cls-1" d="M266.27,259.92q101.61-102.59,256-102.59,128,0,221.3,72.3T859.34,428v4.89q0,12.7-13.68,12.7H713.76q-14.65,0-17.58-13.68-16.63-61.54-62-93.8T523.24,305.84q-88.92,0-142.65,56.67T326.85,512q0,92.84,53.74,149.49t142.65,56.67q65.44,0,110.89-32.24t62-93.8q2.93-13.67,17.58-13.68h131.9q13.68,0,13.68,13.68V597Q836.86,723,743.56,794.86t-221.3,71.81q-154.39,0-256-102.59T164.66,512Q164.66,362.51,266.27,259.92Z"/>
  </g>
</svg>
