<svg xmlns="http://www.w3.org/2000/svg" viewBox="0 0 1024 1024">
  <defs>
    <style>
      .cls-1 {
        fill: #7333ff;
        stroke: #7333ff;
        stroke-miterlimit: 10;
        stroke-width: 60px;
      }

      .cls-2 {
        fill: #eef5ff;
      }
    </style>
  </defs>
  <title>cpp</title>
  <g id="Capa_2" data-name="Capa 2">
    <path class="cls-1" d="M172.87,246.26q96.63-97.57,243.46-97.57,121.73,0,210.47,68.76T736.91,406.09v4.64q0,12.09-13,12.08H598.46c-9.3,0-14.87-4.32-16.73-13q-15.81-58.53-59-89.2T417.26,289.93q-84.57,0-135.67,53.9T230.48,486q0,88.29,51.11,142.17t135.67,53.9q62.24,0,105.47-30.67t59-89.2q2.79-13,16.73-13H723.9q13,0,13,13v4.64Q715.52,686.72,626.8,755t-210.47,68.3q-146.83,0-243.46-97.57T76.23,486Q76.23,343.83,172.87,246.26Z"/>
  </g>
  <g id="Capa_3" data-name="Capa 3">
    <g>
      <path class="cls-2" d="M235.69,708.61H341.91V592.53q0-12.13,12.89-12.14h81.94q12.9,0,12.9,12.14V708.61H555.86q12.14,0,12.14,12.9v75.87q0,12.92-12.14,12.9H449.64V926.36q0,12.15-12.9,12.14H354.8q-12.9,0-12.89-12.14V810.28H235.69q-12.15,0-12.14-12.9V721.51Q223.55,708.61,235.69,708.61Z"/>
      <path class="cls-2" d="M690.91,708.61H797.13V592.53q0-12.13,12.89-12.14H892q12.9,0,12.9,12.14V708.61h106.22q12.13,0,12.14,12.9v75.87q0,12.92-12.14,12.9H904.86V926.36q0,12.15-12.9,12.14H810q-12.9,0-12.89-12.14V810.28H690.91q-12.15,0-12.14-12.9V721.51Q678.77,708.61,690.91,708.61Z"/>
    </g>
  </g>
</svg>
