<svg xmlns="http://www.w3.org/2000/svg" viewBox="0 0 1024 1024">
  <defs>
    <style>
      .cls-1 {
        fill: #beff85;
        stroke: #beff85;
        stroke-width: 60px;
      }

      .cls-1, .cls-2 {
        stroke-miterlimit: 10;
      }

      .cls-2 {
        fill: #eef5ff;
        stroke: #eef5ff;
        stroke-width: 40px;
      }
    </style>
  </defs>
  <title>cs</title>
  <g id="Capa_2" data-name="Capa 2">
    <path class="cls-1" d="M137.46,236.5Q216.27,156.94,336,156.94q99.27,0,171.63,56.07t89.8,153.82v3.79c0,6.57-3.55,9.85-10.61,9.85H484.51q-11.37,0-13.64-10.6Q458,322.13,422.76,297.12t-86-25q-69,0-110.63,43.95T184.45,432q0,72,41.67,115.93t110.63,44q50.76,0,86-25t48.11-72.75q2.28-10.59,13.64-10.6h102.3c7.06,0,10.61,3.54,10.61,10.6v3.79Q580,595.68,507.62,651.37T336,707.06q-119.73,0-198.53-79.56T58.66,432Q58.66,316.06,137.46,236.5Z"/>
  </g>
  <g id="Capa_4" data-name="Capa 4">
    <path class="cls-2" d="M539.18,802.94h74.31V706H539.18q-13.3,0-13.3-12.52v-61.8q0-13.29,13.3-13.29h74.31V518.21q0-13.29,12.52-13.3h72.75q12.5,0,12.51,13.3V618.34H817.65V518.21q0-13.29,12.52-13.3h72.75q13.29,0,13.29,13.3V618.34h73.53q13.29,0,13.3,13.29v61.8q0,12.52-13.3,12.52H916.21v97h73.53q13.29,0,13.3,12.52v61.79q0,13.32-13.3,13.3H916.21V990.68q0,13.3-13.29,13.29H830.17q-12.52,0-12.52-13.29V890.55H711.27V990.68q0,13.3-12.51,13.29H626q-12.53,0-12.52-13.29V890.55H539.18q-13.3,0-13.3-13.3V815.46Q525.88,803,539.18,802.94Zm278.47,0V706H711.27v97Z"/>
  </g>
</svg>
