<svg xmlns="http://www.w3.org/2000/svg" viewBox="0 0 1024 1024">
  <defs>
    <style>
      .cls-1 {
        fill: #fcfcfc;
      }

      .cls-2 {
        fill: none;
        stroke: #ccc;
        stroke-miterlimit: 10;
        stroke-width: 60px;
      }

      .cls-3 {
        fill: #33c151;
      }

      .cls-4 {
        fill: #fff;
      }
    </style>
  </defs>
  <title>excel</title>
  <g id="Capa_1" data-name="Capa 1">
    <path class="cls-1" d="M771.56,962.23h-520a120,120,0,0,1-120-120v-660a120,120,0,0,1,120-120h520a120,120,0,0,1,120,120v660A120,120,0,0,1,771.56,962.23Z"/>
    <rect class="cls-2" x="240.61" y="174.51" width="542.77" height="674.97" rx="60"/>
    <line class="cls-2" x1="415.57" y1="174.51" x2="415.57" y2="849.49"/>
    <line class="cls-2" x1="604.57" y1="174.51" x2="604.57" y2="849.49"/>
    <line class="cls-2" x1="240.17" y1="343.93" x2="782.95" y2="343.93"/>
    <line class="cls-2" x1="240.17" y1="511.23" x2="782.95" y2="511.23"/>
    <line class="cls-2" x1="224.75" y1="678.53" x2="767.52" y2="678.53"/>
  </g>
  <g id="Capa_2" data-name="Capa 2">
    <rect class="cls-3" x="396.05" y="464.93" width="559.07" height="559.07" rx="50"/>
  </g>
  <g id="Capa_3" data-name="Capa 3">
    <path class="cls-4" d="M534.29,916.89l97.65-157-93.15-140a8,8,0,0,1-1.35-4,7.29,7.29,0,0,1,.9-3.15c.6-1.19,2.4-1.8,5.4-1.8h66.15a9.07,9.07,0,0,1,8.55,5l56.7,87.75h1.35l55.8-87.75a10.08,10.08,0,0,1,9-5h66.15c3,0,4.8.61,5.4,1.8a7.29,7.29,0,0,1,.9,3.15,8,8,0,0,1-1.35,4l-93.15,140.4,97.65,156.6a10.65,10.65,0,0,1,1.35,4.5,6.81,6.81,0,0,1-.9,2.7c-.6,1.21-2.4,1.8-5.4,1.8H744.89a10,10,0,0,1-9-4.95l-59.4-97.65h-1.35l-59.85,97.65c-1.5,3.31-4.35,4.95-8.55,4.95h-68c-4.2,0-6.3-1.19-6.3-3.6A11.46,11.46,0,0,1,534.29,916.89Z"/>
  </g>
</svg>
