<?xml version="1.0" encoding="utf-8"?>
<!-- Generator: Adobe Illustrator 24.0.0, SVG Export Plug-In . SVG Version: 6.00 Build 0)  -->
<svg version="1.1" id="Capa_1" xmlns="http://www.w3.org/2000/svg" xmlns:xlink="http://www.w3.org/1999/xlink" x="0px" y="0px"
	 viewBox="0 0 1024 1024" style="enable-background:new 0 0 1024 1024;" xml:space="preserve">
<style type="text/css">
	.st0{opacity:0.97;}
	.st1{fill:#FCFCFC;}
	.st2{fill:#DDDDDD;}
	.st3{fill:#CCCCCC;}
</style>
<title>file</title>
<g>
	<g id="sheet">
		<g class="st0">
			<path class="st1" d="M-162.2,325.5v585c0,28.9-24.9,52.5-55.5,52.5h-628.7c-30.6,0-55.5-23.5-55.5-52.5v-797
				c0-28.9,24.9-52.5,55.5-52.5h414.8L-162.2,325.5z"/>
		</g>
	</g>
	<g id="Capa_6">
		<g>
			
				<image style="overflow:visible;opacity:0.75;enable-background:new    ;" width="637" height="627" xlink:href="93428A26.png"  transform="matrix(0.48 0 0 0.48 -450.69 46.62)">
			</image>
			<path class="st2" d="M-432.5,273V61l269.4,264.5H-377C-407.6,325.5-432.5,302-432.5,273z"/>
		</g>
	</g>
</g>
<path class="st1" d="M772,962H252c-66.3,0-120-53.7-120-120V182c0-66.3,53.7-120,120-120h520c66.3,0,120,53.7,120,120v660
	C892,908.3,838.3,962,772,962z"/>
<g>
	<path class="st3" d="M806.1,512c0,26-22.5,47.2-50,47.2H267.9c-27.5,0-50-21.3-50-47.2c0-26,22.5-47.3,50-47.3h488.2
		C783.6,464.7,806.1,486,806.1,512z"/>
</g>
<g>
	<path class="st3" d="M806.1,715.6c0,26-22.5,47.3-50,47.3H267.9c-27.5,0-50-21.3-50-47.3s22.5-47.3,50-47.3h488.2
		C783.6,668.3,806.1,689.6,806.1,715.6z"/>
</g>
<g>
	<path class="st3" d="M806.1,308.4c0,26-22.5,47.3-50,47.3H267.9c-27.5,0-50-21.3-50-47.3c0-26,22.5-47.3,50-47.3h488.2
		C783.6,261.2,806.1,282.4,806.1,308.4z"/>
</g>
</svg>
