<svg id="Capa_1" data-name="Capa 1" xmlns="http://www.w3.org/2000/svg" viewBox="0 0 1024 1024">
  <defs>
    <style>
      .cls-1 {
        fill: #f7e863;
      }

      .cls-2 {
        fill: #fffa5a;
      }
    </style>
  </defs>
  <title>folder_open</title>
  <g id="pestaña">
    <path class="cls-1" d="M101,133.6H443.6c22.1,0,40,26.1,40,58.2V775c0,32.1-17.9,58.2-40,58.2H101c-22.1,0-40-26.1-40-58.2V191.7C61,159.6,78.9,133.6,101,133.6Z"/>
  </g>
  <g id="Capa_1-2" data-name="Capa 1">
    <path class="cls-1" d="M181,254.1H843c66.3,0,120,52.1,120,116.4V774.1c0,64.3-53.7,116.4-120,116.4H181c-66.3,0-120-52.1-120-116.4V370.5C61,306.2,114.7,254.1,181,254.1Z"/>
  </g>
  <g id="Capa_1-3" data-name="Capa 1">
    <path class="cls-2" d="M247.3,378h662c66.3,0,114.5,42,107.8,93.9L974.8,797.6c-6.7,51.9-65.9,93.9-132.2,93.9h-662c-66.3,0-114.5-42-107.8-93.9l42.3-325.7C121.9,420,181.1,378,247.3,378Z"/>
  </g>
</svg>
