<?xml version="1.0" encoding="utf-8"?>
<!-- Generator: Adobe Illustrator 24.0.0, SVG Export Plug-In . SVG Version: 6.00 Build 0)  -->
<svg version="1.1" xmlns="http://www.w3.org/2000/svg" xmlns:xlink="http://www.w3.org/1999/xlink" x="0px" y="0px"
	 viewBox="0 0 1024 1024" style="enable-background:new 0 0 1024 1024;" xml:space="preserve">
<style type="text/css">
	.st0{fill:#73FF87;}
	.st1{fill:#FFFFFF;stroke:#FFFFFF;stroke-width:100;stroke-linecap:round;stroke-linejoin:round;}
	.st2{display:none;}
	.st3{display:inline;fill:#73FF87;}
	.st4{display:inline;fill:#FFFFFF;stroke:#FFFFFF;stroke-width:100;stroke-linecap:round;stroke-linejoin:round;}
</style>
<symbol  id="Nuevo_símbolo" viewBox="-450 -380 900 760">
	<path class="st0" d="M330-380h-660c-66.3,0-120,55.2-120,123.2v513.6c0,68.1,53.7,123.2,120,123.2h660c66.3,0,120-55.2,120-123.2
		v-513.6C450-324.8,396.3-380,330-380z"/>
	<polygon class="st1" points="307,-226.8 78.1,-226.8 -150.8,-226.8 78.1,2.1 	"/>
	<polygon class="st1" points="1.5,-226.8 -152.7,-226.8 -307,-226.8 -152.7,-72.5 	"/>
	<circle class="st1" cx="-179.6" cy="151.5" r="75.3"/>
</symbol>
<g id="Capa_1" class="st2">
	<title>jpg</title>
	<path class="st3" d="M842,892H182c-66.3,0-120-55.2-120-123.2V255.2C62,187.2,115.7,132,182,132h660c66.3,0,120,55.2,120,123.2
		v513.6C962,836.8,908.3,892,842,892z"/>
	<polygon class="st4" points="819,738.8 590.1,738.8 361.2,738.8 590.1,509.9 	"/>
	<polygon class="st4" points="513.5,738.8 359.3,738.8 205,738.8 359.3,584.5 	"/>
	<circle class="st4" cx="332.4" cy="360.5" r="75.3"/>
</g>
<g id="Capa_2">
	
		<use xlink:href="#Nuevo_símbolo"  width="900" height="760" x="-450" y="-380" transform="matrix(1 0 0 -1 512 512)" style="overflow:visible;"/>
</g>
</svg>
