<?xml version="1.0" encoding="utf-8"?>
<!-- Generator: Adobe Illustrator 24.0.0, SVG Export Plug-In . SVG Version: 6.00 Build 0)  -->
<svg version="1.1" id="Capa_1" xmlns="http://www.w3.org/2000/svg" xmlns:xlink="http://www.w3.org/1999/xlink" x="0px" y="0px"
	 viewBox="0 0 1024 1024" style="enable-background:new 0 0 1024 1024;" xml:space="preserve">
<style type="text/css">
	.st0{fill:#FCFC65;}
</style>
<title>js</title>
<g id="Capa_2_1_">
	<path class="st0" d="M185,61h654c68.5,0,124,55.5,124,124v654c0,68.5-55.5,124-124,124H185c-68.5,0-124-55.5-124-124V185
		C61,116.5,116.5,61,185,61z"/>
</g>
<g id="Capa_3">
	<g>
		<path d="M267.7,734.6h85.9c0.2,27.8,16.8,45.4,42.5,45.4c26.4,0,40.5-16.6,40.5-47.8V568.6H306v-72h220.2v236.3
			c0,77.9-47.4,123-128.7,123C317.7,856,267.7,809.1,267.7,734.6z"/>
		<path d="M660.3,747.3c2.2,25.9,22.2,39.8,57.4,39.8c31.3,0,50.5-14.4,50.5-37.8c0-19.8-12-29.1-47.4-36.6l-41.8-9
			c-62.5-13.4-95-48.3-95-101.3c0-69.1,51-112.8,132.1-112.8c78.8,0,131.8,43.2,133,108.6H766c-1.5-24.7-20-40-48.8-40
			c-27.3,0-44.7,13.2-44.7,33.9c0,21.5,12.7,32.7,44.7,39.3l40.3,8.5c67.9,14.2,98.4,45.2,98.4,99.4c0,73.7-51.5,116.7-140.2,116.7
			c-85.5,0-137.2-40.6-138.7-108.7H660.3z"/>
	</g>
</g>
</svg>
