<svg xmlns="http://www.w3.org/2000/svg" viewBox="0 0 1024 1024">
  <defs>
    <style>
      .cls-1 {
        fill: #fc476a;
        stroke: #fc476a;
        stroke-miterlimit: 10;
        stroke-width: 20px;
      }
    </style>
  </defs>
  <title>json</title>
  <g id="Capa_2" data-name="Capa 2">
    <path class="cls-1" d="M250.72,810.19q-53,0-82.09-31.7t-29.09-88.58a161.53,161.53,0,0,1,6.83-46.33A166,166,0,0,0,153.19,596q0-15.27-11.21-24.87t-32.18-14.3q-21-4.71-49.9-4.72V470.15a220.31,220.31,0,0,0,38.68-3.08Q115.8,464,128,457.8t18.69-15.6a37.45,37.45,0,0,0,6.5-21.78,164.45,164.45,0,0,0-6.82-48.11,156.69,156.69,0,0,1-6.83-45.84q0-54.93,29.09-84.68T250.72,212a285.14,285.14,0,0,1,35.1,1.79,222.74,222.74,0,0,1,25.69,4.72l-7.81,78.34q-9.1-1.62-17.71-2.44t-15.77-.81q-21.45,0-32.67,14.63t-11.21,41.28A121.68,121.68,0,0,0,233.81,392a122,122,0,0,1,7.48,42.43q0,32.84-22.43,51t-62.74,18.86v13.65q40.31.66,62.74,17.72T241.29,582a123.45,123.45,0,0,1-7.48,43.24,118.56,118.56,0,0,0-7.47,41.61q0,29.58,11.21,45.67t32.67,16.09a141.15,141.15,0,0,0,15.77-1q8.61-1,17.71-2.28l7.81,78.34a224.9,224.9,0,0,1-25.69,4.72A285.14,285.14,0,0,1,250.72,810.19Z"/>
    <path class="cls-1" d="M776.88,810.19q53,0,82.08-31.7t29.1-88.58a161.53,161.53,0,0,0-6.83-46.33A166,166,0,0,1,874.4,596q0-15.27,11.22-24.87t32.18-14.3q21-4.71,49.9-4.72V470.15A220.31,220.31,0,0,1,929,467.07Q911.79,464,899.6,457.8t-18.69-15.6a37.39,37.39,0,0,1-6.51-21.78,164.45,164.45,0,0,1,6.83-48.11,156.69,156.69,0,0,0,6.83-45.84q0-54.93-29.1-84.68T776.88,212a285.31,285.31,0,0,0-35.11,1.79,222.55,222.55,0,0,0-25.68,4.72l7.8,78.34q9.11-1.62,17.72-2.44t15.77-.81q21.45,0,32.67,14.63t11.21,41.28A121.91,121.91,0,0,1,793.79,392a121.79,121.79,0,0,0-7.48,42.43q0,32.84,22.43,51t62.74,18.86v13.65q-40.31.66-62.74,17.72T786.31,582a123.22,123.22,0,0,0,7.48,43.24,118.79,118.79,0,0,1,7.47,41.61q0,29.58-11.21,45.67t-32.67,16.09a141.15,141.15,0,0,1-15.77-1q-8.61-1-17.72-2.28l-7.8,78.34a224.71,224.71,0,0,0,25.68,4.72A285.31,285.31,0,0,0,776.88,810.19Z"/>
    <path class="cls-1" d="M459.89,740l23.64-203.91H571.6L536.13,740ZM525.2,399.55a53.74,53.74,0,0,1-53.79-53.79q0-22.45,15.67-38.12T525.2,292q22.45,0,38.12,15.66T579,345.76a53.72,53.72,0,0,1-53.78,53.79Z"/>
  </g>
</svg>
