<svg xmlns="http://www.w3.org/2000/svg" viewBox="0 0 1024 1024">
  <defs>
    <style>
      .cls-1 {
        fill: #232323;
      }

      .cls-2 {
        fill: #f9324a;
        stroke: #f9324a;
        stroke-miterlimit: 10;
        stroke-width: 20px;
      }
    </style>
  </defs>
  <title>json</title>
  <g id="Capa_1" data-name="Capa 1">
    <rect class="cls-1" x="62" y="62" width="900" height="900" rx="120"/>
  </g>
  <g id="Capa_2" data-name="Capa 2">
    <path class="cls-2" d="M316,736q-39.84,0-61.71-23.83t-21.88-66.6a121.39,121.39,0,0,1,5.13-34.83,124.88,124.88,0,0,0,5.14-35.81,23.44,23.44,0,0,0-8.44-18.7Q225.8,549,210,545.46t-37.52-3.55V480.32A165.51,165.51,0,0,0,201.6,478a80.19,80.19,0,0,0,22.12-7,36.82,36.82,0,0,0,14.06-11.73,28.21,28.21,0,0,0,4.89-16.38,123.67,123.67,0,0,0-5.14-36.17,117.83,117.83,0,0,1-5.13-34.47q0-41.29,21.88-63.67T316,286.25a215.63,215.63,0,0,1,26.4,1.34,167.88,167.88,0,0,1,19.31,3.55L355.83,350q-6.84-1.21-13.32-1.83t-11.85-.61q-16.14,0-24.57,11t-8.43,31a91.52,91.52,0,0,0,5.62,31.89,91.62,91.62,0,0,1,5.62,31.9q0,24.69-16.86,38.37T244.87,506v10.27q30.3.5,47.17,13.32T308.9,564.4a92.71,92.71,0,0,1-5.62,32.51,89.18,89.18,0,0,0-5.62,31.28q0,22.24,8.43,34.34t24.57,12.1a105.76,105.76,0,0,0,11.85-.73q6.48-.74,13.32-1.71l5.87,58.9a167.88,167.88,0,0,1-19.31,3.55A215.63,215.63,0,0,1,316,736Z"/>
    <path class="cls-2" d="M711.61,736q39.84,0,61.71-23.83t21.88-66.6a121.06,121.06,0,0,0-5.14-34.83,124.87,124.87,0,0,1-5.13-35.81,23.46,23.46,0,0,1,8.43-18.7q8.45-7.22,24.2-10.75t37.52-3.55V480.32A165.62,165.62,0,0,1,826,478a80.41,80.41,0,0,1-22.12-7,36.78,36.78,0,0,1-14-11.73,28.14,28.14,0,0,1-4.89-16.38,123.67,123.67,0,0,1,5.13-36.17,117.5,117.5,0,0,0,5.14-34.47q0-41.29-21.88-63.67t-61.71-22.36a215.63,215.63,0,0,0-26.4,1.34,167.48,167.48,0,0,0-19.31,3.55l5.87,58.9q6.84-1.21,13.32-1.83t11.85-.61q16.14,0,24.57,11t8.43,31a91.52,91.52,0,0,1-5.62,31.89,91.62,91.62,0,0,0-5.63,31.9q0,24.69,16.87,38.37T782.73,506v10.27q-30.3.5-47.17,13.32T718.69,564.4a92.71,92.71,0,0,0,5.63,32.51,89.18,89.18,0,0,1,5.62,31.28q0,22.24-8.43,34.34t-24.57,12.1a105.76,105.76,0,0,1-11.85-.73q-6.48-.74-13.32-1.71l-5.87,58.9a167.48,167.48,0,0,0,19.31,3.55A215.63,215.63,0,0,0,711.61,736Z"/>
    <path class="cls-2" d="M473.26,683.2,491,529.89h66.22L530.59,683.2Zm49.11-256A40.41,40.41,0,1,1,551,415.34,38.8,38.8,0,0,1,522.37,427.23Z"/>
  </g>
</svg>
