<svg id="Capa_1" data-name="Capa 1" xmlns="http://www.w3.org/2000/svg" viewBox="0 0 1024 1024">
  <defs>
    <style>
      .cls-1 {
        fill: #8857ff;
      }

      .cls-2 {
        fill: #161616;
      }
    </style>
  </defs>
  <title>php</title>
  <rect class="cls-1" y="170.67" width="1024" height="682.67" rx="341.33"/>
  <g>
    <path class="cls-2" d="M361.8,508.48a112.2,112.2,0,0,1-8.8,42.8,115.8,115.8,0,0,1-23.6,35.2,114,114,0,0,1-34.8,23.6,114.26,114.26,0,0,1-86,0,135,135,0,0,1-24.4-14.4v100.4h-62V406.88h62v14.4a135,135,0,0,1,24.4-14.4,114.26,114.26,0,0,1,86,0,114,114,0,0,1,34.8,23.6,115.8,115.8,0,0,1,23.6,35.2A112.2,112.2,0,0,1,361.8,508.48Zm-54.8,0a55.4,55.4,0,1,0-55.6,55.6A55.48,55.48,0,0,0,307,508.48Z"/>
    <path class="cls-2" d="M637.8,520.08v92.8H576.2v-92.8c0-30.4-12.4-50.4-49.2-50.4-26.4,0-48,22-48.4,49.2v94H415.8V329.69h62.8v98.39c.4-.4,22-24,55.6-24C619.8,404.08,637.8,471.28,637.8,520.08Z"/>
    <path class="cls-2" d="M928.19,508.48a112.2,112.2,0,0,1-8.8,42.8,115.8,115.8,0,0,1-23.6,35.2A114.1,114.1,0,0,1,861,610.08a114.26,114.26,0,0,1-86,0,135,135,0,0,1-24.4-14.4v100.4h-62V406.88h62v14.4a135,135,0,0,1,24.4-14.4,114.26,114.26,0,0,1,86,0,114.1,114.1,0,0,1,34.79,23.6,115.8,115.8,0,0,1,23.6,35.2A112.2,112.2,0,0,1,928.19,508.48Zm-54.8,0a55.4,55.4,0,1,0-55.59,55.6A55.47,55.47,0,0,0,873.39,508.48Z"/>
  </g>
</svg>
