<svg id="Capa_1" data-name="Capa 1" xmlns="http://www.w3.org/2000/svg" viewBox="0 0 1024 1024">
  <defs>
    <style>
      .cls-1 {
        fill: #73ff87;
      }
    </style>
  </defs>
  <title>png</title>
  <path class="cls-1" d="M842,129.88H182c-66.27,0-120,55.17-120,123.23V766.66c0,68.05,53.73,123.22,120,123.22H842c66.27,0,120-55.17,120-123.22V253.11C962,185.05,908.27,129.88,842,129.88ZM333.68,229.63A129.76,129.76,0,1,1,203.92,359.39,129.76,129.76,0,0,1,333.68,229.63ZM801.79,792.22,593.86,793.3l-82.08.42c-1.74.18-3.51.29-5.32.3l-149.2,1.55-149.19,1.55c-48.74.51-72.54-58.17-37.72-93L321.09,553.39c21.59-21.59,56.23-21.95,77.37-.81l39.16,39.15L551.05,478.3c24.67-24.67,64.47-24.88,88.89-.46L846.79,684.69C886.18,724.09,857.79,791.93,801.79,792.22Z"/>
</svg>
