<svg xmlns="http://www.w3.org/2000/svg" viewBox="0 0 1024 1024">
  <defs>
    <style>
      .cls-1 {
        fill: #fcfcfc;
      }

      .cls-2 {
        fill: #ccc;
      }

      .cls-3 {
        fill: #ff3e3e;
      }

      .cls-4 {
        fill: #fff;
      }
    </style>
  </defs>
  <title>power</title>
  <g id="Capa_1" data-name="Capa 1">
    <path class="cls-1" d="M772,862.45H252c-66.3,0-120-41.82-120-93.45V255c0-51.63,53.7-93.45,120-93.45H772c66.3,0,120,41.82,120,93.45V769C892,820.63,838.3,862.45,772,862.45Z"/>
    <rect class="cls-2" x="230.43" y="247.96" width="563.14" height="528.08" rx="90"/>
  </g>
  <g id="Capa_2" data-name="Capa 2">
    <rect class="cls-3" x="397.38" y="390.93" width="559.07" height="559.07" rx="50"/>
  </g>
  <g id="Capa_3" data-name="Capa 3">
    <path class="cls-4" d="M562.37,844.69V544.09c0-4.79,2.4-7.2,7.2-7.2H691.52q58.49,0,90.67,29t32.18,81.67q0,52.65-32.18,81.9t-90.67,29.25H635.27v86c0,4.81-2.55,7.2-7.65,7.2h-58C564.77,851.89,562.37,849.5,562.37,844.69ZM689.72,691.24q49.5,0,49.5-43.65t-49.5-43.65H635.27v87.3Z"/>
  </g>
</svg>
