<svg xmlns="http://www.w3.org/2000/svg" viewBox="0 0 1024 1024">
  <defs>
    <style>
      .cls-1 {
        fill: #090b38;
        stroke: #000;
        stroke-miterlimit: 10;
      }

      .cls-2 {
        fill: #c2e2ff;
      }
    </style>
  </defs>
  <title>psd</title>
  <g id="ps">
    <rect class="cls-1" x="62" y="62" width="900" height="900" rx="120"/>
  </g>
  <g id="Capa_6" data-name="Capa 6">
    <g>
      <path class="cls-2" d="M340.44,298.23c88.77,0,145,55.95,145,144.72,0,87.89-58,143.85-149.12,143.85H269V721H185.75V298.23ZM269,518.24h50.39c54.49,0,81.74-24.9,81.74-75.87,0-50.69-27.25-75.88-81.74-75.88H269Z"/>
      <path class="cls-2" d="M698.16,390.22c78.22,0,126,35.15,129.78,95.8H752.36c-3.81-21.39-24.91-34.57-54.79-34.57-30.47,0-50.68,13.77-50.68,34.28,0,17.57,13.47,28.12,44.82,34.56l50.1,10.26c65.33,13.48,94.33,41.31,94.33,90.53,0,65.33-53.32,106.64-137.4,106.64-82.61,0-133.59-35.45-138-96.1h79.11c5,22.27,26.66,34.57,60,34.57,32.82,0,53.91-13.77,53.91-34.86,0-18.16-12.3-27-46.29-34.28L659.19,586.8c-60.64-13.18-91.4-44.83-91.4-94.63C567.79,429.48,618.18,390.22,698.16,390.22Z"/>
    </g>
  </g>
</svg>
