<svg xmlns="http://www.w3.org/2000/svg" viewBox="0 0 1024 1024">
  <defs>
    <style>
      .cls-1 {
        fill: #5fb7ff;
      }
    </style>
  </defs>
  <title>ts</title>
  <g id="Capa_3" data-name="Capa 3">
    <rect class="cls-1" x="60.5" y="60.5" width="902" height="902" rx="124"/>
    <g>
      <path d="M362.15,848.39V568.11H265.47v-72H548.19v72H451.51V848.39Z"/>
      <path d="M659.76,746.82c2.2,25.88,22.22,39.8,57.37,39.8,31.25,0,50.54-14.41,50.54-37.84,0-19.78-12-29.06-47.36-36.62l-41.75-9c-62.5-13.43-95-48.34-95-101.32,0-69.09,51-112.79,132.08-112.79,78.85,0,131.83,43.21,133.05,108.64H765.47c-1.46-24.65-20-40-48.83-40-27.34,0-44.67,13.19-44.67,33.94,0,21.48,12.69,32.71,44.67,39.31l40.29,8.54c67.87,14.16,98.38,45.17,98.38,99.37,0,73.73-51.51,116.7-140.13,116.7-85.45,0-137.21-40.53-138.67-108.65Z"/>
    </g>
  </g>
</svg>
