<svg xmlns="http://www.w3.org/2000/svg" viewBox="0 0 1024 1024">
  <defs>
    <style>
      .cls-1 {
        fill: #fcfcfc;
      }

      .cls-2 {
        fill: #f5f955;
      }

      .cls-3 {
        fill: #ccc;
      }
    </style>
  </defs>
  <title>txt</title>
  <g id="Capa_6" data-name="Capa 6">
    <rect class="cls-1" x="61" y="60.7" width="902" height="902.61" rx="120"/>
  </g>
  <g id="Capa_4" data-name="Capa 4">
    <rect class="cls-2" x="61" y="60.7" width="902" height="272.5" rx="120"/>
    <rect class="cls-2" x="61" y="225.53" width="902" height="107.66"/>
  </g>
  <g id="Capa_7" data-name="Capa 7">
    <path class="cls-3" d="M834.11,536.25c0,26-22.5,47.25-50,47.25H239.89c-27.5,0-50-21.26-50-47.25s22.5-47.25,50-47.25H784.11C811.61,489,834.11,510.26,834.11,536.25Z"/>
    <path class="cls-3" d="M834.11,756.48c0,26-22.5,47.25-50,47.25H239.89c-27.5,0-50-21.27-50-47.25s22.5-47.25,50-47.25H784.11C811.61,709.23,834.11,730.49,834.11,756.48Z"/>
  </g>
</svg>
