<svg xmlns="http://www.w3.org/2000/svg" viewBox="0 0 1024 1024">
  <defs>
    <style>
      .cls-1 {
        fill: #fcfcfc;
      }

      .cls-2 {
        fill: #ccc;
      }

      .cls-3 {
        fill: #2a8dd8;
      }

      .cls-4 {
        fill: #fff;
      }
    </style>
  </defs>
  <title>word</title>
  <g id="Capa_1" data-name="Capa 1">
    <path class="cls-1" d="M771.56,962.23h-520a120,120,0,0,1-120-120v-660a120,120,0,0,1,120-120h520a120,120,0,0,1,120,120v660A120,120,0,0,1,771.56,962.23Z"/>
    <path class="cls-2" d="M805.66,512.23c0,26-22.5,47.2-50,47.2H267.46c-27.5,0-50-21.3-50-47.2s22.5-47.3,50-47.3h488.2C783.16,464.93,805.66,486.23,805.66,512.23Z"/>
    <path class="cls-2" d="M805.66,715.83c0,26-22.5,47.3-50,47.3H267.46c-27.5,0-50-21.3-50-47.3s22.5-47.3,50-47.3h488.2C783.16,668.53,805.66,689.83,805.66,715.83Z"/>
    <path class="cls-2" d="M805.66,308.63c0,26-22.5,47.3-50,47.3H267.46c-27.5,0-50-21.3-50-47.3s22.5-47.3,50-47.3h488.2C783.16,261.43,805.66,282.63,805.66,308.63Z"/>
  </g>
  <g id="Capa_2" data-name="Capa 2">
    <rect class="cls-3" x="405.1" y="464.93" width="559.07" height="559.07" rx="50"/>
  </g>
  <g id="Capa_3" data-name="Capa 3">
    <path class="cls-4" d="M458.65,610.89h62.1c4.5,0,7.2,2.11,8.1,6.3l58,196.65h1.35l59-196.65c.9-4.19,3.75-6.3,8.55-6.3h53.1c4.5,0,7.2,2.11,8.1,6.3l59.4,196.65h1.35l58-196.65c.9-4.19,3.6-6.3,8.1-6.3H905.5q6.75,0,6.75,5.4a13.15,13.15,0,0,1-.45,3.15L818.65,919.59c-.9,4.21-3.6,6.3-8.1,6.3h-59.4c-4.5,0-7.2-2.09-8.1-6.3L683.2,726.54h-1.8L622,919.59c-1.5,4.21-4.35,6.3-8.55,6.3h-59.4c-4.5,0-7.2-2.09-8.1-6.3L452.8,619.44a19.17,19.17,0,0,1-.45-3.6C452.35,612.55,454.45,610.89,458.65,610.89Z"/>
  </g>
</svg>
